PathFileType	4	(X/Y/Z)	D:\TRACE\spot_10-12-23\spot_arm_motion_2_1-platform.trc
DataRate	CameraRate	NumFrames	NumMarkers	Units	OrigDataRate	OrigDataStartFrame	OrigNumFrames
100.00	100.00	      54	5	mm	100.00	6126	      7000
Frame#	Time	Left_Front			Right_Front			Left_Aft			Right_Aft			Post			
		X1	Y1	Z1	X2	Y2	Z2	X3	Y3	Z3	X4	Y4	Z4	X5	Y5	Z5	

6126	61.250	-757.51135	62.83237	-625.42725	815.01135	67.53585	-618.50452	-674.10852	-35.02859	508.52698	743.05927	-37.06536	594.21039	25.04630	825.64941	-879.20929	
6127	61.260	-758.52960	62.49350	-625.62134	814.01520	66.89586	-619.04297	-675.17242	-34.23364	508.02209	742.19153	-36.47377	594.06775	23.91114	824.59088	-880.41211	
6128	61.270	-759.71246	61.72423	-625.87695	812.99646	66.21529	-619.10205	-676.16107	-33.93274	508.06415	741.04590	-35.94168	593.79547	23.41899	823.59399	-881.29053	
6129	61.280	-760.66052	61.11912	-626.17871	811.96088	65.35284	-619.24298	-676.99664	-33.34580	508.04565	740.16003	-35.30967	593.76349	22.06658	822.58569	-882.50452	
6130	61.290	-761.64478	60.19400	-626.41687	811.16217	64.47646	-619.39258	-678.10028	-32.62414	507.68784	739.13263	-34.71550	593.61761	21.08689	821.42944	-883.04364	
6131	61.300	-762.56512	59.42394	-626.56757	810.11664	63.75540	-619.79517	-679.23230	-32.22843	507.83258	738.05768	-34.03305	593.35303	19.88782	820.64063	-884.51825	
6132	61.310	-763.68524	58.56578	-626.93958	809.08325	63.00151	-620.21783	-680.22845	-31.48313	507.17618	737.08740	-33.19190	593.36572	19.48743	819.16437	-885.48840	
6133	61.320	-764.51074	57.90481	-627.19452	808.08295	62.07485	-620.30414	-681.23157	-30.88552	507.13370	736.25397	-32.65820	593.22980	18.13684	818.10162	-886.73541	
6134	61.330	-765.55194	56.84432	-627.41113	807.08795	61.20955	-620.69763	-682.34760	-30.25915	506.98953	735.14581	-31.95082	592.97107	17.17965	816.96045	-887.89539	
6135	61.340	-766.67688	56.09378	-627.76904	805.82336	60.19258	-620.88409	-683.22119	-29.78818	506.73184	733.92639	-31.02137	592.87140	16.09272	815.63202	-889.37061	
6136	61.350	-767.71912	54.90344	-628.10675	804.88605	59.43441	-621.32843	-684.55670	-28.77400	506.66190	732.87762	-30.40662	592.77179	14.88336	814.24738	-890.63135	
6137	61.360	-768.84912	54.06994	-628.27142	803.60638	58.49290	-621.65002	-685.67609	-28.03921	506.57635	731.53369	-29.71627	592.52655	14.07520	812.91125	-892.18933	
6138	61.370	-769.86951	53.15449	-628.70703	802.75238	57.52804	-621.87311	-686.70892	-27.42397	506.41986	730.70691	-28.70819	592.35077	13.09940	811.55750	-893.83466	
6139	61.380	-771.09717	52.21275	-629.07251	801.60126	56.48687	-622.08832	-687.82874	-26.67299	506.16037	729.62189	-27.97598	592.14905	11.60472	810.13928	-895.28613	
6140	61.390	-772.07660	50.88335	-629.34222	800.59808	55.29001	-622.55597	-688.93170	-26.04224	506.04111	728.54669	-27.01284	591.97949	10.72190	808.75598	-896.87445	
6141	61.400	-773.22113	50.04275	-629.72479	799.40356	54.38477	-622.73834	-690.10101	-25.34597	505.79877	727.56091	-26.14231	591.81885	9.84595	807.26007	-898.35809	
6142	61.410	-774.32751	48.95367	-629.95184	798.68134	53.32564	-622.91504	-691.08405	-24.55683	505.69653	726.26056	-25.40563	591.60327	8.62804	805.73285	-900.02045	
6143	61.420	-775.35620	47.90129	-630.39270	797.31616	52.11832	-623.40424	-692.17090	-23.53203	505.47147	725.43420	-24.37380	591.47504	7.47314	804.05975	-901.35602	
6144	61.430	-776.36548	46.76815	-630.64563	796.16254	51.09101	-623.99420	-693.23840	-22.96418	505.25668	724.20874	-23.35531	591.07312	6.34072	802.65442	-903.02991	
6145	61.440	-777.67810	45.64097	-631.01031	795.10876	50.00301	-624.13446	-694.49194	-22.09502	504.84918	723.11884	-22.39828	590.98523	5.35244	800.84271	-904.75018	
6146	61.450	-778.82172	44.35405	-631.43365	793.95563	48.64573	-624.39502	-695.52747	-21.33706	504.77045	721.85016	-21.64757	590.79877	4.02774	799.22278	-906.45697	
6147	61.460	-779.93408	43.40858	-631.66333	792.86688	47.61927	-624.72778	-696.68396	-20.37725	504.48441	720.55933	-20.71541	590.46783	2.81442	797.61334	-908.00409	
6148	61.470	-781.05347	42.03381	-631.99530	791.69342	46.41243	-625.29279	-697.85181	-19.63163	504.63730	719.55768	-19.76157	590.29309	1.87537	795.99646	-909.56262	
6149	61.480	-782.05896	40.92694	-632.48779	790.57697	45.41273	-625.50208	-698.75989	-18.85415	503.93567	718.38483	-18.76340	589.93982	0.82008	794.38037	-911.44434	
6150	61.490	-783.20215	39.90419	-632.72028	789.58002	44.02526	-625.75696	-699.82074	-18.18580	503.86774	717.53845	-17.61112	589.76050	7.90798	713.96136	-926.93933	
6151	61.500	-784.38025	38.33220	-633.06097	788.46710	42.85765	-626.16400	-701.03925	-17.24226	503.36929	716.35468	-16.60482	589.60327	-1.46624	790.76038	-914.95154	
6152	61.510	-785.65314	37.10878	-633.49622	787.15179	41.42621	-626.74713	-702.27936	-16.25246	503.09222	715.07849	-15.42141	589.30237	-2.73729	788.91180	-916.60468	
6153	61.520	-786.55402	35.88671	-633.88525	786.02289	40.20677	-626.97559	-703.34296	-15.31171	502.82947	713.96484	-14.60225	589.06403	-3.81853	787.11456	-918.53357	
6154	61.530	-787.68329	34.59176	-634.11469	785.02838	39.04804	-627.25793	-704.57672	-14.39564	502.51141	712.65948	-13.45614	588.71234	-4.84137	785.32043	-920.54858	
6155	61.540	-788.81921	33.15903	-634.69641	783.88068	37.86762	-627.64221	-705.76111	-13.51770	502.27902	711.54510	-12.51129	588.51978	-6.16465	783.45404	-922.30054	
6156	61.550	-790.11798	31.98977	-635.07312	782.79407	36.17319	-628.06195	-706.86896	-12.64382	501.98593	710.45593	-11.31026	588.28571	15.93335	777.58429	-942.58881	
6157	61.560	-791.06171	30.47705	-635.16852	781.47321	34.97502	-628.51416	-707.82446	-11.58115	501.75601	709.37714	-10.17266	588.02301	9.14653	776.53522	-939.88641	
6158	61.570	-792.36047	29.48915	-635.80005	780.53302	33.67611	-628.86255	-708.99908	-10.65660	501.50363	708.31183	-9.08504	587.76709	-9.21632	777.54626	-928.15192	
6159	61.580	-793.26312	27.93474	-636.23163	779.29175	32.14069	-629.03314	-710.21069	-9.68129	501.11261	707.05627	-8.01939	587.32654	-10.58764	775.70679	-930.13849	
6160	61.590	-794.44940	26.43973	-636.42358	778.26868	30.95880	-629.55768	-711.26892	-8.96373	500.95990	705.97357	-7.00504	586.97620	-11.70814	773.74957	-931.97473	
6161	61.600	-795.64941	25.25301	-636.77362	777.16876	29.48942	-629.82141	-712.38989	-7.77694	500.53528	704.62195	-5.84800	586.62958	-12.60348	771.81580	-933.81244	
6162	61.610	-796.82941	23.95970	-637.24280	775.99915	28.14077	-630.27228	-713.48450	-7.17187	500.62915	703.56476	-4.82343	586.46332	-13.63443	769.69104	-935.73151	
6163	61.620	-797.88348	22.31683	-637.56677	774.81824	26.77298	-630.64594	-714.74585	-6.07297	500.17798	702.57684	-3.48418	586.17773	-15.08373	767.66992	-937.69391	
6164	61.630	-798.98828	20.95203	-637.94336	773.73096	25.40076	-631.04999	-715.88525	-5.09218	499.54758	701.39069	-2.48441	585.92896	-16.34867	765.71301	-939.67590	
6165	61.640	-800.27209	19.82567	-638.24371	772.71118	23.94851	-631.20850	-716.81299	-4.09413	499.36884	700.41589	-1.26660	585.72644	-17.13320	763.71338	-941.52527	
6166	61.650	-801.16162	18.16283	-638.58069	771.56500	22.56937	-631.66919	-718.07275	-3.02640	498.96667	699.05341	-0.24209	585.27679	-18.16150	761.69421	-943.21741	
6167	61.660	-802.30920	16.95103	-639.21002	770.69397	21.33287	-632.15271	-719.08936	-2.10756	498.72659	698.10675	0.95757	584.96008	-19.02892	759.60736	-945.22357	
6168	61.670	-803.38593	15.43749	-639.49274	769.19751	19.64278	-632.52490	-720.13599	-1.23946	498.42776	697.00757	2.11584	584.44067	-20.47758	757.51373	-947.13007	
6169	61.680	-804.47186	13.88974	-639.66797	768.32330	18.45653	-632.73468	-721.27618	-0.11785	497.97769	695.75610	3.24529	584.25873	-21.46877	755.40271	-948.98834	
6170	61.690	-805.49487	12.46170	-640.04858	767.23987	16.91109	-633.19165	-722.28693	0.90351	497.90054	694.63287	4.30827	583.98517	-22.54847	753.22369	-950.78912	
6171	61.700	-806.50238	11.29571	-640.43634	766.20398	15.47153	-633.40289	-723.39404	1.90998	497.34811	693.30444	5.36751	583.55090	-23.62902	751.14526	-952.76935	
6172	61.710	-807.57050	9.66182	-640.84247	765.13208	14.20546	-633.91620	-724.35010	2.65161	497.28293	692.54279	6.49054	583.20862	-24.54805	749.23505	-954.97394	
6173	61.720	-808.53033	8.21022	-641.21503	764.16992	12.67259	-634.29016	-725.52380	3.72440	496.92102	691.86224	8.07087	582.84900	-25.73626	747.13031	-956.76379	
6174	61.730	-809.77740	6.89441	-641.43311	762.92468	11.30655	-634.58459	-726.53870	4.91645	496.35611	690.92792	9.30161	582.43988	-26.60540	745.03210	-958.70966	
6175	61.740	-810.50177	5.35071	-641.83203	762.12964	9.66663	-634.82861	-727.56116	5.73813	496.09427	689.20508	9.63713	582.15839	-27.47247	742.91632	-960.91052	
6176	61.750	-811.84778	4.35309	-642.24054	761.17877	8.50590	-635.16010	-728.71130	6.70579	495.66116	687.96973	10.77809	581.66754	-28.37681	740.81567	-962.98413	
6177	61.760	-812.59070	2.76205	-642.51245	760.00977	7.15998	-635.65863	-729.65692	7.66191	495.32361	687.94690	12.58144	581.45581	-29.33944	738.69867	-964.87238	
6178	61.770	-813.43225	1.02654	-642.78741	759.04492	5.53021	-635.87585	-730.38391	8.60940	495.11243	686.72571	13.86352	581.08612	-30.41980	736.50482	-966.62238	
6179	61.780	-814.63892	-0.22415	-642.98853	758.24774	4.10252	-636.27185	-731.42505	9.69338	494.73044	685.83557	14.88213	580.77081	-31.61945	734.30457	-968.39551	
